# xmcd
#
# Track frame offsets: 
#        150
#        19253
#        41367
#        63470
#        85660
#        105385
#        121753
#        140607
#        159935
#
# Disc length: 2466 seconds
#
# Revision: 1
# Processed by: cddbd v1.5.2PL0 Copyright (c) Steve Scherf et al.
# Submitted via: ExactAudioCopy v0.99pb5
#
DISCID=6609a009
DTITLE=Maggie Herron - The Trio
DYEAR=1900
DGENRE=Blues
TTITLE0=All Or Nothing At All
TTITLE1=Temptation
TTITLE2=Autumn Leaves
TTITLE3=Over The Rainbow
TTITLE4=Blowin' In The Wind
TTITLE5=Things Could Be Better
TTITLE6=Another Dose
TTITLE7=Billy's Bounce
TTITLE8=Body And Soul
EXTD=
EXTT0=
EXTT1=
EXTT2=
EXTT3=
EXTT4=
EXTT5=
EXTT6=
EXTT7=
EXTT8=
PLAYORDER=
